<svg xmlns="http://www.w3.org/2000/svg" width="181" height="48" fill="none">
  <path fill="#349AFF" d="M173.928 13.756a6.39 6.39 0 0 0 4.409-1.867 6.376 6.376 0 0 0 1.87-4.404 6.27 6.27 0 0 0-3.749-6.222 6.29 6.29 0 0 0-5.024 0 6.273 6.273 0 0 0-3.749 6.222 6.37 6.37 0 0 0 6.243 6.272Z"></path>
  <path fill="white" d="M21.771 40.934H10.913a1.146 1.146 0 0 0-1.055.715l-1.717 4.27a1.126 1.126 0 0 1-1.056.715H1.146a1.145 1.145 0 0 1-1.055-1.59l11.931-27a1.144 1.144 0 0 1 1.038-.714h6.618a1.146 1.146 0 0 1 1.056.68L32.7 44.99a1.143 1.143 0 0 1-1.055 1.59h-6.047a1.128 1.128 0 0 1-1.055-.715l-1.789-4.252a1.143 1.143 0 0 0-.984-.68Zm-3.345-6.093a1.147 1.147 0 0 0 1.133-1.026 1.142 1.142 0 0 0-.077-.546l-3.149-7.791-3.13 7.79a1.143 1.143 0 0 0 1.109 1.573h4.114ZM62.914 34.162a6.945 6.945 0 0 1 1.377 4.234 6.732 6.732 0 0 1-1.788 4.718 11.629 11.629 0 0 1-4.973 3.073 21.274 21.274 0 0 1-6.905 1.072 27.364 27.364 0 0 1-6.046-.715 26.37 26.37 0 0 1-5.886-2.144l2.451-5.753a18.708 18.708 0 0 0 4.204 1.518c1.425.334 2.883.508 4.347.519a9.776 9.776 0 0 0 4.507-.894 2.772 2.772 0 0 0 1.79-2.537A2.036 2.036 0 0 0 54.9 35.34a5.693 5.693 0 0 0-3.023-.625h-6.315a1.145 1.145 0 0 1-1.144-1.144v-3.734a1.143 1.143 0 0 1 1.145-1.126h5.67a4.315 4.315 0 0 0 2.594-.661 2.073 2.073 0 0 0 .93-1.787 2.392 2.392 0 0 0-1.431-2.198 7.591 7.591 0 0 0-3.578-.786c-1.317.01-2.628.191-3.9.536-1.353.34-2.662.837-3.899 1.483l-2.021-5.235a1.196 1.196 0 0 1 .626-1.501 23.671 23.671 0 0 1 9.266-1.787 21.057 21.057 0 0 1 6.672 1.036 11.576 11.576 0 0 1 4.901 2.949 6.36 6.36 0 0 1 1.79 4.556 6.41 6.41 0 0 1-1.074 3.574 7.315 7.315 0 0 1-3.077 2.519 8.336 8.336 0 0 1 3.882 2.752ZM92.394 40.934h-10.84a1.128 1.128 0 0 0-1.056.715l-1.789 4.27a1.108 1.108 0 0 1-1.055.715h-5.885a1.128 1.128 0 0 1-1.135-1.04 1.124 1.124 0 0 1 .097-.55l11.931-27a1.143 1.143 0 0 1 1.038-.714h6.672a1.145 1.145 0 0 1 1.038.68l11.967 26.98a1.13 1.13 0 0 1-.082 1.08 1.134 1.134 0 0 1-.956.51h-6.1a1.11 1.11 0 0 1-1.055-.715l-1.789-4.252a1.126 1.126 0 0 0-1.001-.68Zm-3.346-6.093a1.144 1.144 0 0 0 1.056-1.573l-3.13-7.79-3.13 7.79a1.143 1.143 0 0 0 1.055 1.573h4.15ZM132.606 23.923h-6.672a1.146 1.146 0 0 0-1.145 1.144V45.49a1.126 1.126 0 0 1-1.127 1.126h-5.885a1.144 1.144 0 0 1-1.145-1.126V25.067a1.142 1.142 0 0 0-1.127-1.144h-6.726a1.129 1.129 0 0 1-1.127-1.125v-4.289a1.136 1.136 0 0 1 .311-.83 1.125 1.125 0 0 1 .816-.349h23.827a1.147 1.147 0 0 1 1.145 1.144v4.288a1.158 1.158 0 0 1-.329.82 1.152 1.152 0 0 1-.816.341ZM142.892 17.33h5.867a1.146 1.146 0 0 1 1.145 1.144V30.98a1.143 1.143 0 0 0 2.146.644l9.678-13.759a1.124 1.124 0 0 1 .859-.536h6.046a1.127 1.127 0 0 1 1.145 1.144v26.98a1.121 1.121 0 0 1-.337.803 1.12 1.12 0 0 1-.808.323h-5.85a1.123 1.123 0 0 1-1.057-.69 1.121 1.121 0 0 1-.088-.435V33.09a1.144 1.144 0 0 0-2.075-.661l-9.659 13.704a1.125 1.125 0 0 1-.93.483h-6.082a1.126 1.126 0 0 1-1.145-1.126V18.51a1.125 1.125 0 0 1 1.145-1.18Z"></path>
</svg>
