<svg width="246" height="49" viewBox="0 0 246 49" fill="none" xmlns="http://www.w3.org/2000/svg">
<path d="M12.2654 22.1313C13.4612 23.3069 13.4612 25.2345 12.2653 26.4101L0 38.4668V10.0732L12.2654 22.1313Z" fill="#29a2ff"/>
<path d="M4.98411 0.238525H33V48.2385H4.78448L29.3413 24.1036L29.3298 24.0923L4.98411 0.238525Z" fill="#29a2ff"/>
<path d="M88.1885 26.2216V48.4768H78.9338V37.9736H64.6111C59.0289 37.9736 54.475 42.5274 54.475 48.183V48.4768H45V48.183C45 37.3125 53.814 28.4985 64.6111 28.4985H79.3745L78.7869 25.0464C78.2728 21.5208 75.2613 19.0235 71.8092 19.0235H45V9.54847H71.8092C80.8435 9.54847 88.1885 17.0404 88.1885 26.2216Z" fill="white"/>
<path d="M136.679 17.1138L108.474 40.324H136.679V48.4034H94.8856V40.8381L123.09 17.628H94.8856V9.54847H136.679V17.1138Z" fill="white"/>
<path d="M186.525 26.2216V48.4768H177.271V37.9736H162.948C157.366 37.9736 152.812 42.5274 152.812 48.183V48.4768H143.337V48.183C143.337 37.3125 152.151 28.4985 162.948 28.4985H177.711L177.124 25.0464C176.609 21.5208 173.598 19.0235 170.146 19.0235H143.337V9.54847H170.146C179.18 9.54847 186.525 17.0404 186.525 26.2216Z" fill="white"/>
<path d="M229.947 39.0753V48.4034H216.139C206.296 48.4034 198.29 40.3974 198.29 30.5551V17.4076H193.222V9.25468H198.29V0H207.619V9.25468H229.494V17.4076H207.619V30.5551C207.619 35.2559 211.438 39.0753 216.139 39.0753H229.947Z" fill="white"/>
<path d="M236.652 48.4034V17.416H245.981V48.4034H236.652Z" fill="white"/>
<path d="M236.652 8.14036V0.199494H245.981V8.14036H236.652Z" fill="white"/>
</svg>
